<?xml version="1.0" encoding="utf-8"?>
<svg xmlns="http://www.w3.org/2000/svg" style="margin: auto; background: none; display: block; shape-rendering: auto;" width="280" height="60" preserveAspectRatio="xMidYMid">
<style type="text/css">
  text {
    text-anchor: middle; font-size: 32px; opacity: 0;
  }
</style>
<g style="transform-origin: 140px 30px; transform: scale(0.4);">
<g transform="translate(140,30)">
  <g transform="translate(0,0)"><g class="path" style="transform: scale(0.91); transform-origin: -202.12px -4.63069px; animation: 0.666667s linear -0.4s infinite normal forwards running breath-5ae60262-cdc9-409f-aa1e-a317e0f12d83;"><path d="M51.92 0L51.92-46.32L36.96-12.64L29.44-12.64L14.40-46.32L14.40 0L7.20 0L7.20-56L17.84-56L33.36-20.56L48.64-56L59.52-56L59.52 0L51.92 0" fill="#020621" stroke="none" stroke-width="none" transform="translate(-235.48001098632812,23.369305780584167)" style="fill: rgb(2, 6, 33);"></path></g><g class="path" style="transform: scale(0.91); transform-origin: -148.04px 11.3693px; animation: 0.666667s linear -0.36s infinite normal forwards running breath-5ae60262-cdc9-409f-aa1e-a317e0f12d83;"><path d="M74.16 18.56L74.16 18.56L74.16 18.56Q71.76 18.56 69.96 18.08L69.96 18.08L69.96 18.08Q68.16 17.60 67.12 16.96L67.12 16.96L68.72 10.96L68.72 10.96Q69.68 11.52 71.08 11.92L71.08 11.92L71.08 11.92Q72.48 12.32 74.32 12.32L74.32 12.32L74.32 12.32Q76 12.32 77.48 11.84L77.48 11.84L77.48 11.84Q78.96 11.36 80.32 10.16L80.32 10.16L80.32 10.16Q81.68 8.96 82.92 6.88L82.92 6.88L82.92 6.88Q84.16 4.80 85.36 1.68L85.36 1.68L87.20-3.12L83.36-3.12L67.12-39.68L73.52-42.56L89.04-7.92L101.12-42.24L107.76-39.68L92.48 2.08L92.48 2.08Q90.72 6.88 88.76 10.04L88.76 10.04L88.76 10.04Q86.80 13.20 84.56 15.12L84.56 15.12L84.56 15.12Q82.32 17.04 79.72 17.80L79.72 17.80L79.72 17.80Q77.12 18.56 74.16 18.56" fill="#020621" stroke="none" stroke-width="none" transform="translate(-235.48001098632812,23.369305780584167)" style="fill: rgb(5, 150, 105);"></path></g><g class="path" style="transform: scale(0.91); transform-origin: -111.04px -2.75069px; animation: 0.666667s linear -0.32s infinite normal forwards running breath-5ae60262-cdc9-409f-aa1e-a317e0f12d83;"><path d="M116.72-40.08L118.24-53.20L123.76-53.20L123.76-40.08L135.28-40.08L135.28-33.84L123.76-33.84L123.76-13.76L123.76-13.76Q123.76-11.44 124.28-9.84L124.28-9.84L124.28-9.84Q124.80-8.24 125.68-7.28L125.68-7.28L125.68-7.28Q126.56-6.32 127.80-5.88L127.80-5.88L127.80-5.88Q129.04-5.44 130.40-5.44L130.40-5.44L130.40-5.44Q132.40-5.44 134.16-6.08L134.16-6.08L134.16-6.08Q135.92-6.72 137.52-7.60L137.52-7.60L139.52-1.84L139.52-1.84Q137.92-0.88 135.20 0.04L135.20 0.04L135.20 0.04Q132.48 0.96 129.52 0.96L129.52 0.96L129.52 0.96Q123.52 0.96 120.04-2.96L120.04-2.96L120.04-2.96Q116.56-6.88 116.56-14.32L116.56-14.32L116.56-33.84L109.36-33.84L109.36-40.08L116.72-40.08" fill="#020621" stroke="none" stroke-width="none" transform="translate(-235.48001098632812,23.369305780584167)" style="fill: rgb(2, 6, 33);"></path></g><g class="path" style="transform: scale(0.91); transform-origin: -76.4px 2.08931px; animation: 0.666667s linear -0.28s infinite normal forwards running breath-5ae60262-cdc9-409f-aa1e-a317e0f12d83;"><path d="M171.44-42.08L169.28-34.64L169.28-34.64Q167.76-35.28 165.68-35.28L165.68-35.28L165.68-35.28Q163.44-35.28 161.32-34.32L161.32-34.32L161.32-34.32Q159.20-33.36 157.56-31.44L157.56-31.44L157.56-31.44Q155.92-29.52 154.92-26.52L154.92-26.52L154.92-26.52Q153.92-23.52 153.92-19.44L153.92-19.44L153.92 0L146.72 0L146.72-41.60L153.68-41.60L153.68-32.56L153.68-32.56Q154.40-34.48 155.60-36.32L155.60-36.32L155.60-36.32Q156.80-38.16 158.44-39.52L158.44-39.52L158.44-39.52Q160.08-40.88 162.24-41.72L162.24-41.72L162.24-41.72Q164.40-42.56 167.04-42.56L167.04-42.56L167.04-42.56Q168.24-42.56 169.40-42.44L169.40-42.44L169.40-42.44Q170.56-42.32 171.44-42.08L171.44-42.08" fill="#020621" stroke="none" stroke-width="none" transform="translate(-235.48001098632812,23.369305780584167)" style="fill: rgb(5, 150, 105);"></path></g><g class="path" style="transform: scale(0.91); transform-origin: -43.68px 2.56931px; animation: 0.666667s linear -0.24s infinite normal forwards running breath-5ae60262-cdc9-409f-aa1e-a317e0f12d83;"><path d="M209.92-17.84L180.80-17.84L180.80-17.84Q181.52-12 184.88-8.72L184.88-8.72L184.88-8.72Q188.24-5.44 193.76-5.44L193.76-5.44L193.76-5.44Q197.36-5.44 200.24-6.20L200.24-6.20L200.24-6.20Q203.12-6.96 205.76-8.16L205.76-8.16L207.44-2L207.44-2Q204.56-0.64 200.96 0.16L200.96 0.16L200.96 0.16Q197.36 0.96 192.88 0.96L192.88 0.96L192.88 0.96Q188.40 0.96 184.80-0.52L184.80-0.52L184.80-0.52Q181.20-2 178.68-4.76L178.68-4.76L178.68-4.76Q176.16-7.52 174.80-11.56L174.80-11.56L174.80-11.56Q173.44-15.60 173.44-20.80L173.44-20.80L173.44-20.80Q173.44-25.44 174.80-29.44L174.80-29.44L174.80-29.44Q176.16-33.44 178.64-36.36L178.64-36.36L178.64-36.36Q181.12-39.28 184.56-40.92L184.56-40.92L184.56-40.92Q188-42.56 192.24-42.56L192.24-42.56L192.24-42.56Q196.72-42.56 200.08-41.04L200.08-41.04L200.08-41.04Q203.44-39.52 205.68-36.88L205.68-36.88L205.68-36.88Q207.92-34.24 209.04-30.72L209.04-30.72L209.04-30.72Q210.16-27.20 210.16-23.28L210.16-23.28L210.16-23.28Q210.16-20.48 209.92-17.84L209.92-17.84zM192.08-36.32L192.08-36.32L192.08-36.32Q187.36-36.32 184.36-33.12L184.36-33.12L184.36-33.12Q181.36-29.92 180.72-23.68L180.72-23.68L203.52-23.68L203.52-23.68Q203.52-29.76 200.48-33.04L200.48-33.04L200.48-33.04Q197.44-36.32 192.08-36.32" fill="#020621" stroke="none" stroke-width="none" transform="translate(-235.48001098632812,23.369305780584167)" style="fill: rgb(2, 6, 33);"></path></g><g class="path" style="transform: scale(0.91); transform-origin: -0.160011px 2.56931px; animation: 0.666667s linear -0.2s infinite normal forwards running breath-5ae60262-cdc9-409f-aa1e-a317e0f12d83;"><path d="M253.44-17.84L224.32-17.84L224.32-17.84Q225.04-12 228.40-8.72L228.40-8.72L228.40-8.72Q231.76-5.44 237.28-5.44L237.28-5.44L237.28-5.44Q240.88-5.44 243.76-6.20L243.76-6.20L243.76-6.20Q246.64-6.96 249.28-8.16L249.28-8.16L250.96-2L250.96-2Q248.08-0.64 244.48 0.16L244.48 0.16L244.48 0.16Q240.88 0.96 236.40 0.96L236.40 0.96L236.40 0.96Q231.92 0.96 228.32-0.52L228.32-0.52L228.32-0.52Q224.72-2 222.20-4.76L222.20-4.76L222.20-4.76Q219.68-7.52 218.32-11.56L218.32-11.56L218.32-11.56Q216.96-15.60 216.96-20.80L216.96-20.80L216.96-20.80Q216.96-25.44 218.32-29.44L218.32-29.44L218.32-29.44Q219.68-33.44 222.16-36.36L222.16-36.36L222.16-36.36Q224.64-39.28 228.08-40.92L228.08-40.92L228.08-40.92Q231.52-42.56 235.76-42.56L235.76-42.56L235.76-42.56Q240.24-42.56 243.60-41.04L243.60-41.04L243.60-41.04Q246.96-39.52 249.20-36.88L249.20-36.88L249.20-36.88Q251.44-34.24 252.56-30.72L252.56-30.72L252.56-30.72Q253.68-27.20 253.68-23.28L253.68-23.28L253.68-23.28Q253.68-20.48 253.44-17.84L253.44-17.84zM235.60-36.32L235.60-36.32L235.60-36.32Q230.88-36.32 227.88-33.12L227.88-33.12L227.88-33.12Q224.88-29.92 224.24-23.68L224.24-23.68L247.04-23.68L247.04-23.68Q247.04-29.76 244-33.04L244-33.04L244-33.04Q240.96-36.32 235.60-36.32" fill="#020621" stroke="none" stroke-width="none" transform="translate(-235.48001098632812,23.369305780584167)" style="fill: rgb(5, 150, 105);"></path></g><g class="path" style="transform: scale(0.91); transform-origin: 45.28px -6.2307px; animation: 0.666667s linear -0.16s infinite normal forwards running breath-5ae60262-cdc9-409f-aa1e-a317e0f12d83;"><path d="M270.48-59.20L270.48-34.96L270.48-34.96Q272.72-38.24 276.12-40.40L276.12-40.40L276.12-40.40Q279.52-42.56 284.24-42.56L284.24-42.56L284.24-42.56Q291.28-42.56 294.76-38.32L294.76-38.32L294.76-38.32Q298.24-34.08 298.24-27.12L298.24-27.12L298.24 0L291.04 0L291.04-26.32L291.04-26.32Q291.04-30.88 289-33.56L289-33.56L289-33.56Q286.96-36.24 283.12-36.24L283.12-36.24L283.12-36.24Q281.28-36.24 279.48-35.56L279.48-35.56L279.48-35.56Q277.68-34.88 276.08-33.68L276.08-33.68L276.08-33.68Q274.48-32.48 273.04-30.88L273.04-30.88L273.04-30.88Q271.60-29.28 270.48-27.52L270.48-27.52L270.48 0L263.28 0L263.28-59.20L270.48-59.20" fill="#020621" stroke="none" stroke-width="none" transform="translate(-235.48001098632812,23.369305780584167)" style="fill: rgb(2, 6, 33);"></path></g><g class="path" style="transform: scale(0.91); transform-origin: 92.68px 2.56931px; animation: 0.666667s linear -0.12s infinite normal forwards running breath-5ae60262-cdc9-409f-aa1e-a317e0f12d83;"><path d="M341.52-20.80L341.52-20.80L341.52-20.80Q341.52-23.92 340.52-26.72L340.52-26.72L340.52-26.72Q339.52-29.52 337.72-31.60L337.72-31.60L337.72-31.60Q335.92-33.68 333.48-34.92L333.48-34.92L333.48-34.92Q331.04-36.16 328.16-36.16L328.16-36.16L328.16-36.16Q321.84-36.16 318.32-32L318.32-32L318.32-32Q314.80-27.84 314.80-20.96L314.80-20.96L314.80-20.96Q314.80-17.84 315.80-15L315.80-15L315.80-15Q316.80-12.16 318.60-10.04L318.60-10.04L318.60-10.04Q320.40-7.92 322.84-6.68L322.84-6.68L322.84-6.68Q325.28-5.44 328.16-5.44L328.16-5.44L328.16-5.44Q331.28-5.44 333.76-6.56L333.76-6.56L333.76-6.56Q336.24-7.68 337.96-9.72L337.96-9.72L337.96-9.72Q339.68-11.76 340.60-14.56L340.60-14.56L340.60-14.56Q341.52-17.36 341.52-20.80zM307.44-20.80L307.44-20.80L307.44-20.80Q307.44-25.84 309.04-29.88L309.04-29.88L309.04-29.88Q310.64-33.92 313.40-36.72L313.40-36.72L313.40-36.72Q316.16-39.52 319.96-41.04L319.96-41.04L319.96-41.04Q323.76-42.56 328.16-42.56L328.16-42.56L328.16-42.56Q332.48-42.56 336.28-41.04L336.28-41.04L336.28-41.04Q340.08-39.52 342.88-36.72L342.88-36.72L342.88-36.72Q345.68-33.92 347.28-29.92L347.28-29.92L347.28-29.92Q348.88-25.92 348.88-20.96L348.88-20.96L348.88-20.96Q348.88-16 347.32-11.96L347.32-11.96L347.32-11.96Q345.76-7.92 342.96-5.04L342.96-5.04L342.96-5.04Q340.16-2.16 336.36-0.60L336.36-0.60L336.36-0.60Q332.56 0.96 328.16 0.96L328.16 0.96L328.16 0.96Q323.68 0.96 319.88-0.64L319.88-0.64L319.88-0.64Q316.08-2.24 313.32-5.12L313.32-5.12L313.32-5.12Q310.56-8 309-12L309-12L309-12Q307.44-16 307.44-20.80" fill="#020621" stroke="none" stroke-width="none" transform="translate(-235.48001098632812,23.369305780584167)" style="fill: rgb(5, 150, 105);"></path></g><g class="path" style="transform: scale(0.91); transform-origin: 142.16px 3.04931px; animation: 0.666667s linear -0.08s infinite normal forwards running breath-5ae60262-cdc9-409f-aa1e-a317e0f12d83;"><path d="M397.20-5.20L395.68 0.40L395.68 0.40Q391.84 0.40 389.60-1.12L389.60-1.12L389.60-1.12Q387.36-2.64 386.48-5.52L386.48-5.52L386.48-5.52Q383.68-2.64 380.04-0.84L380.04-0.84L380.04-0.84Q376.40 0.96 372.08 0.96L372.08 0.96L372.08 0.96Q369.36 0.96 366.84 0.12L366.84 0.12L366.84 0.12Q364.32-0.72 362.36-2.56L362.36-2.56L362.36-2.56Q360.40-4.40 359.24-7.36L359.24-7.36L359.24-7.36Q358.08-10.32 358.08-14.56L358.08-14.56L358.08-41.60L365.28-41.60L365.28-15.52L365.28-15.52Q365.28-10.64 367.32-8.04L367.32-8.04L367.32-8.04Q369.36-5.44 373.44-5.44L373.44-5.44L373.44-5.44Q376.80-5.44 379.84-6.76L379.84-6.76L379.84-6.76Q382.88-8.08 385.28-10.32L385.28-10.32L385.28-41.60L392.48-41.60L392.48-10.80L392.48-10.80Q392.48-9.04 392.88-7.96L392.88-7.96L392.88-7.96Q393.28-6.88 393.92-6.28L393.92-6.28L393.92-6.28Q394.56-5.68 395.44-5.44L395.44-5.44L395.44-5.44Q396.32-5.20 397.20-5.20L397.20-5.20" fill="#020621" stroke="none" stroke-width="none" transform="translate(-235.48001098632812,23.369305780584167)" style="fill: rgb(2, 6, 33);"></path></g><g class="path" style="transform: scale(0.91); transform-origin: 183.44px 2.56931px; animation: 0.666667s linear -0.04s infinite normal forwards running breath-5ae60262-cdc9-409f-aa1e-a317e0f12d83;"><path d="M403.20-3.36L406.24-9.36L406.24-9.36Q408.32-7.52 411.48-6.40L411.48-6.40L411.48-6.40Q414.64-5.28 418.24-5.28L418.24-5.28L418.24-5.28Q422.72-5.28 425.00-6.76L425.00-6.76L425.00-6.76Q427.28-8.24 427.28-10.56L427.28-10.56L427.28-10.56Q427.28-11.76 426.84-12.80L426.84-12.80L426.84-12.80Q426.40-13.84 425.24-14.80L425.24-14.80L425.24-14.80Q424.08-15.76 422.08-16.68L422.08-16.68L422.08-16.68Q420.08-17.60 416.88-18.72L416.88-18.72L416.88-18.72Q410.96-20.72 408.08-23.48L408.08-23.48L408.08-23.48Q405.20-26.24 405.20-31.12L405.20-31.12L405.20-31.12Q405.20-33.52 406.28-35.60L406.28-35.60L406.28-35.60Q407.36-37.68 409.40-39.24L409.40-39.24L409.40-39.24Q411.44-40.80 414.36-41.68L414.36-41.68L414.36-41.68Q417.28-42.56 421.04-42.56L421.04-42.56L421.04-42.56Q425.12-42.56 428.20-41.72L428.20-41.72L428.20-41.72Q431.28-40.88 433.76-39.60L433.76-39.60L431.76-33.68L431.76-33.68Q429.60-34.96 426.84-35.76L426.84-35.76L426.84-35.76Q424.08-36.56 420.72-36.56L420.72-36.56L420.72-36.56Q416.56-36.56 414.40-34.88L414.40-34.88L414.40-34.88Q412.24-33.20 412.24-31.20L412.24-31.20L412.24-31.20Q412.24-30.24 412.60-29.44L412.60-29.44L412.60-29.44Q412.96-28.64 413.92-27.92L413.92-27.92L413.92-27.92Q414.88-27.20 416.48-26.48L416.48-26.48L416.48-26.48Q418.08-25.76 420.48-24.96L420.48-24.96L420.48-24.96Q424.40-23.60 427.12-22.20L427.12-22.20L427.12-22.20Q429.84-20.80 431.52-19.12L431.52-19.12L431.52-19.12Q433.20-17.44 433.92-15.48L433.92-15.48L433.92-15.48Q434.64-13.52 434.64-11.12L434.64-11.12L434.64-11.12Q434.64-8.32 433.44-6.08L433.44-6.08L433.44-6.08Q432.24-3.84 430.08-2.28L430.08-2.28L430.08-2.28Q427.92-0.72 424.84 0.12L424.84 0.12L424.84 0.12Q421.76 0.96 418.00 0.96L418.00 0.96L418.00 0.96Q413.20 0.96 409.44-0.24L409.44-0.24L409.44-0.24Q405.68-1.44 403.20-3.36L403.20-3.36" fill="#020621" stroke="none" stroke-width="none" transform="translate(-235.48001098632812,23.369305780584167)" style="fill: rgb(5, 150, 105);"></path></g><g class="path" style="transform: scale(0.91); transform-origin: 224.32px 2.56931px; animation: 0.666667s linear 0s infinite normal forwards running breath-5ae60262-cdc9-409f-aa1e-a317e0f12d83;"><path d="M477.92-17.84L448.80-17.84L448.80-17.84Q449.52-12 452.88-8.72L452.88-8.72L452.88-8.72Q456.24-5.44 461.76-5.44L461.76-5.44L461.76-5.44Q465.36-5.44 468.24-6.20L468.24-6.20L468.24-6.20Q471.12-6.96 473.76-8.16L473.76-8.16L475.44-2L475.44-2Q472.56-0.64 468.96 0.16L468.96 0.16L468.96 0.16Q465.36 0.96 460.88 0.96L460.88 0.96L460.88 0.96Q456.40 0.96 452.80-0.52L452.80-0.52L452.80-0.52Q449.20-2 446.68-4.76L446.68-4.76L446.68-4.76Q444.16-7.52 442.80-11.56L442.80-11.56L442.80-11.56Q441.44-15.60 441.44-20.80L441.44-20.80L441.44-20.80Q441.44-25.44 442.80-29.44L442.80-29.44L442.80-29.44Q444.16-33.44 446.64-36.36L446.64-36.36L446.64-36.36Q449.12-39.28 452.56-40.92L452.56-40.92L452.56-40.92Q456.00-42.56 460.24-42.56L460.24-42.56L460.24-42.56Q464.72-42.56 468.08-41.04L468.08-41.04L468.08-41.04Q471.44-39.52 473.68-36.88L473.68-36.88L473.68-36.88Q475.92-34.24 477.04-30.72L477.04-30.72L477.04-30.72Q478.16-27.20 478.16-23.28L478.16-23.28L478.16-23.28Q478.16-20.48 477.92-17.84L477.92-17.84zM460.08-36.32L460.08-36.32L460.08-36.32Q455.36-36.32 452.36-33.12L452.36-33.12L452.36-33.12Q449.36-29.92 448.72-23.68L448.72-23.68L471.52-23.68L471.52-23.68Q471.52-29.76 468.48-33.04L468.48-33.04L468.48-33.04Q465.44-36.32 460.08-36.32" fill="#020621" stroke="none" stroke-width="none" transform="translate(-235.48001098632812,23.369305780584167)" style="fill: rgb(2, 6, 33);"></path></g></g>
</g>
</g>
<style id="breath-5ae60262-cdc9-409f-aa1e-a317e0f12d83" data-anikit="">@keyframes breath-5ae60262-cdc9-409f-aa1e-a317e0f12d83
{
  0% {
    animation-timing-function: cubic-bezier(0.9647,0.2413,-0.0705,0.7911);
    transform: scale(0.9099999999999999);
  }
  51% {
    animation-timing-function: cubic-bezier(0.9226,0.2631,-0.0308,0.7628);
    transform: scale(1.02994);
  }
  100% {
    transform: scale(0.9099999999999999);
  }
}</style></svg>